<?xml version="1.0" encoding="UTF-8"?>
<!DOCTYPE svg PUBLIC "-//W3C//DTD SVG 1.1//EN" "http://www.w3.org/Graphics/SVG/1.1/DTD/svg11.dtd">
<!-- Creator: CorelDRAW 2019 -->
<svg xmlns="http://www.w3.org/2000/svg" xml:space="preserve" width="423.333mm" height="169.333mm" version="1.1" style="shape-rendering:geometricPrecision; text-rendering:geometricPrecision; image-rendering:optimizeQuality; fill-rule:evenodd; clip-rule:evenodd"
viewBox="0 0 42333.32 16933.32"
 xmlns:xlink="http://www.w3.org/1999/xlink"
 xmlns:xodm="http://www.corel.com/coreldraw/odm/2003">
 <defs>
  <style type="text/css">
   <![CDATA[
    .str12 {stroke:#49211A;stroke-width:7.62;stroke-miterlimit:22.9256}
    .str16 {stroke:#FEFEFE;stroke-width:110.36;stroke-miterlimit:22.9256}
    .str14 {stroke:#1E1C1F;stroke-width:113.91;stroke-miterlimit:22.9256}
    .str17 {stroke:#1E1C1F;stroke-width:113.91;stroke-miterlimit:22.9256}
    .str13 {stroke:#1E1C1F;stroke-width:113.91;stroke-miterlimit:22.9256}
    .str18 {stroke:#1E1C1F;stroke-width:113.91;stroke-miterlimit:22.9256}
    .str15 {stroke:white;stroke-width:194.26;stroke-miterlimit:22.9256}
    .str8 {stroke:#1E1C1F;stroke-width:6.25;stroke-linecap:round;stroke-miterlimit:22.9256}
    .str6 {stroke:#1E1C1F;stroke-width:6.25;stroke-linecap:round;stroke-miterlimit:22.9256}
    .str7 {stroke:#1E1C1F;stroke-width:6.25;stroke-linecap:round;stroke-miterlimit:22.9256}
    .str9 {stroke:#1E1C1F;stroke-width:6.25;stroke-linecap:round;stroke-miterlimit:22.9256}
    .str11 {stroke:#1E1C1F;stroke-width:6.25;stroke-linecap:round;stroke-miterlimit:22.9256}
    .str10 {stroke:#1E1C1F;stroke-width:6.25;stroke-linecap:round;stroke-miterlimit:22.9256}
    .str2 {stroke:#49211A;stroke-width:39.89;stroke-linecap:round;stroke-miterlimit:22.9256}
    .str0 {stroke:#49211A;stroke-width:39.89;stroke-linecap:round;stroke-miterlimit:22.9256}
    .str1 {stroke:#49211A;stroke-width:39.89;stroke-linecap:round;stroke-miterlimit:22.9256}
    .str3 {stroke:#49211A;stroke-width:39.89;stroke-linecap:round;stroke-miterlimit:22.9256}
    .str5 {stroke:#49211A;stroke-width:39.89;stroke-linecap:round;stroke-miterlimit:22.9256}
    .str4 {stroke:#49211A;stroke-width:39.89;stroke-linecap:round;stroke-miterlimit:22.9256}
    .fil3 {fill:none}
    .fil6 {fill:none;fill-rule:nonzero}
    .fil4 {fill:#FEFEFE}
    .fil11 {fill:#FEFEFE}
    .fil8 {fill:#5B5B5B}
    .fil12 {fill:#FEFBF6}
    .fil10 {fill:#3E2019}
    .fil0 {fill:#2A282B}
    .fil5 {fill:#1E1C1F}
    .fil1 {fill:#49211A;fill-rule:nonzero}
    .fil13 {fill:#2A282B;fill-rule:nonzero}
    .fil9 {fill:#1E1C1F;fill-rule:nonzero}
    .fil7 {fill:url(#id0)}
    .fil2 {fill:url(#id1)}
   ]]>
  </style>
  <linearGradient id="id0" gradientUnits="userSpaceOnUse" x1="9919.74" y1="14358.11" x2="16966.37" y2="5691.03">
   <stop offset="0" style="stop-opacity:1; stop-color:#FEFBF6"/>
   <stop offset="1" style="stop-opacity:1; stop-color:#FEFEFE"/>
  </linearGradient>
  <linearGradient id="id1" gradientUnits="userSpaceOnUse" x1="12444.27" y1="2782.15" x2="11978.89" y2="12632.53">
   <stop offset="0" style="stop-opacity:1; stop-color:#2A282B"/>
   <stop offset="1" style="stop-opacity:1; stop-color:#FEFEFE"/>
  </linearGradient>
 </defs>
 <g id="Слой_x0020_1">
  <metadata id="CorelCorpID_0Corel-Layer"/>
  <g id="_1088481208">
   <path class="fil0" d="M20464.96 10154.97c-1639.37,2663.77 -4828.02,4471.21 -8493.13,4471.21 -3670.4,0 -6863.06,-1812.54 -8500.33,-4482.59 1207.45,209.79 2501.11,464.85 3213.05,712.19 3947.57,1371.35 4897.37,2803.52 5325.78,2812.03 318.5,6.35 1648.38,-1566.27 5231.32,-2812.03 708.56,-246.37 2006.38,-497.55 3223.31,-700.81z"/>
   <g>
    <polygon class="fil1" points="12056.36,5059.09 12001.55,12215.52 11954.89,12215.14 12009.7,5058.71 "/>
   </g>
   <path class="fil2" d="M11989.28 12632.99c2384.48,-2890.39 8623.52,-3626.52 10760.31,-3988.86 224.69,-65.11 231.71,-89.38 109.41,-203.88l-4030.31 -3774.43c-2698.64,536.44 -5175.33,973.51 -6797.52,1662.62 -1259.44,-717.81 -4501.66,-1457.69 -6891.31,-1662.62l-4047.14 3790.19c-137.26,128.53 59.31,162.87 75.46,164.2 948.4,96.13 8863.35,1116.04 10821.1,4012.78z"/>
   <g id="_813925416">
    <path class="fil3 str0" d="M2952.27 7730.32c4003.94,526.45 5331.98,966.83 8351.34,2716.35"/>
    <path class="fil3 str1" d="M3988.33 6756.07c2937.41,386.23 4434.66,726.13 6216.02,1570.59"/>
    <path class="fil3 str2" d="M4839.97 5783.73c2572.23,338.19 4040.05,641 5561.49,1277.96"/>
    <path class="fil3 str3" d="M20928.5 7797.14c-4003.93,526.44 -5331.97,966.83 -8351.34,2716.35"/>
    <path class="fil3 str4" d="M19925.85 6756.07c-2937.41,386.23 -4434.66,726.13 -6216.02,1570.59"/>
    <path class="fil3 str5" d="M19074.21 5783.73c-2572.22,338.19 -4040.04,641 -5561.49,1277.96"/>
   </g>
   <g>
    <path class="fil4" d="M11989.28 11497.12c2384.48,-2890.4 8623.52,-3626.53 10760.31,-3988.87 224.69,-65.1 231.71,-89.37 109.41,-203.88l-4030.31 -3774.42c-2698.64,536.44 -5175.33,973.51 -6797.52,1662.61 -1259.44,-717.8 -4501.66,-1457.69 -6891.31,-1662.61l-4047.14 3790.18c-137.26,128.53 59.31,162.88 75.46,164.2 948.4,96.13 8863.35,1116.04 10821.1,4012.79z"/>
    <path id="1" class="fil5" d="M11989.28 11497.12c2384.48,-2890.4 8623.52,-3626.53 10760.31,-3988.87 224.69,-65.1 231.71,-89.37 109.41,-203.88l-4030.31 -3774.42c-2698.64,536.44 -5175.33,973.51 -6797.52,1662.61 -1259.44,-717.8 -4501.66,-1457.69 -6891.31,-1662.61l-4047.14 3790.18c-137.26,128.53 59.31,162.88 75.46,164.2 948.4,96.13 8863.35,1116.04 10821.1,4012.79zm10095.65 -3820.11c-2551.41,403.07 -7894.5,1247.21 -10050.12,3858.2 -3.35,4.32 -7.33,8.24 -11.92,11.6 -26.39,19.3 -62.84,12.7 -81.4,-14.74 -684.06,-1012.15 -2110.27,-1794.86 -3710.12,-2388.13 -2933.1,-1087.67 -6442.63,-1535.4 -7064.78,-1598.83 -0.99,-0.02 -1.98,-0.08 -2.98,-0.16 -8.49,-0.69 -55.78,-8.43 -95.91,-28.4 -24.57,-12.22 -47.87,-29.4 -63.38,-53.35 -19.24,-29.72 -25.76,-65.29 -9.6,-107.38 9.64,-25.1 28.23,-52.14 58.9,-80.86l4045.45 -3788.6c11.7,-11.82 28.06,-18.53 45.59,-17.03 1229.29,105.41 2684.04,352.2 3979.57,664.76 1213.94,292.87 2289.24,644.02 2910.79,991.54 1437.16,-604.84 3526.12,-1015.1 5843.45,-1470.11 300,-58.91 603.93,-118.59 938.02,-185 17.68,-3.9 36.84,0.73 51.3,14.26l4030.31 3774.42c83.55,78.22 120.61,130.24 87.99,194.17 -23.94,46.9 -91.52,75.78 -219.14,112.83 -2.58,0.84 -5.25,1.5 -7.99,1.96 -204.3,34.64 -425.72,69.63 -674.03,108.85z"/>
   </g>
   <g>
    <path class="fil3 str6" d="M2952.27 6561.04c4003.94,526.44 5331.98,966.83 8351.34,2716.35"/>
    <path class="fil3 str7" d="M3988.33 5586.79c2937.41,386.23 4434.66,726.12 6216.02,1570.58"/>
    <path class="fil3 str8" d="M4839.97 4614.44c2572.23,338.19 4040.05,641 5561.49,1277.96"/>
    <path class="fil3 str9" d="M20928.5 6627.85c-4003.93,526.45 -5331.97,966.83 -8351.34,2716.35"/>
    <path class="fil3 str10" d="M19925.85 5586.79c-2937.41,386.23 -4434.66,726.12 -6216.02,1570.58"/>
    <path class="fil3 str11" d="M19074.21 4614.44c-2572.22,338.19 -4040.04,641 -5561.49,1277.96"/>
   </g>
   <g>
    <line class="fil6 str12" x1="11978.22" y1="11459.14" x2="12033.03" y2= "4302.7" />
   </g>
   <path class="fil7" d="M15405.06 3690.54c968.39,902.4 1560.67,2187.71 1634.46,3640.21 17.84,351.11 -5.95,401.95 -55.36,748.26 -257.07,330.58 -4123.77,1443.66 -4691.7,1468.01 -954.88,5.89 -4186.72,-778.17 -5227.32,-1582.88 -6.15,-70.12 -54.15,-91.55 -57.46,-156.7 -73.79,-1452.49 348.41,-2734.3 1220.14,-3734.7 870.45,-998.93 2109.43,-1654.16 3510.52,-1728.77 1401.09,-74.61 2699.74,445.49 3666.72,1346.57z"/>
   <path class="fil8" d="M13165.39 6553.83c82.4,53.77 253.13,67.93 336.99,-58.63 83.85,-126.58 37.68,-304.4 265.13,-531.69 227.51,-227.32 281.34,-526.73 250.45,-612.34 -30.91,-85.57 -340.22,-109.79 -336.72,-354.23 3.54,-244.45 -34.44,-364.54 93.55,-458.59 128.01,-94.06 23.85,-472.32 -139.51,-446.19 -163.35,26.15 -281.68,-107.07 -350.24,111.69 -68.57,218.81 -63.26,323.24 -79.44,527.63 -16.18,204.41 -184.97,230.83 -200.71,231.67 -15.75,0.84 -97.3,-10.86 -78.29,132.11 18.99,142.96 -129.45,169.72 -184.51,236.63 -55.05,66.92 -145.37,170.59 -68.26,329.31 77.13,158.72 138.62,114.71 241.93,161.57 103.3,46.85 171.28,-78.86 122.76,115.6 -48.57,194.47 95.38,204.28 93.59,274.16 -1.77,69.87 -106.81,197.59 -67.69,236.21 39.13,38.6 100.97,105.09 100.97,105.09z"/>
   <path class="fil9 str13" d="M17013.54 5930.79c-58.31,-14.85 -111.46,-35.42 -164.89,-63.05l-92.28 176.8c67.09,34.48 133.54,60.51 206.67,79.14l50.5 -192.89zm963.13 -759.36c2.39,51.56 -1.55,121.53 -14.85,171.35l194.36 44.62c16.79,-72.13 23.12,-150.85 19.7,-224.75l-199.21 8.78zm-73.68 335.46c-26.96,53.54 -58.96,101.13 -96.86,147.46l152.59 128.37c46.81,-55.31 89.21,-120.33 121.78,-185.04l-177.51 -90.79zm-224.75 271.54c-46.43,36.1 -97.54,68.84 -150.69,94.18l86.34 179.78c66.61,-32.29 128.5,-71.23 186.91,-116.66l-122.56 -157.3zm-317.61 153.85c-57.44,13.27 -115.3,20.47 -174.32,20.11l-1.29 199.41c75.03,0.35 147.91,-8.49 220.94,-25.35l-45.33 -194.17z"/>
   <path class="fil8" d="M11758.27 2322.37c1385.04,-73.76 2667.69,418.37 3621.79,1273.56 955.42,856.45 1581.52,2077.02 1651.7,3458.52 8.54,168.04 8.55,335.43 0.46,501.59 -4.62,94.76 -11.95,189.09 -21.89,282.83 -15.19,143.11 -0.79,225.91 -126.95,296.65 -1053.93,591.85 -3004.4,1347.08 -4635.48,1417.7 -1653.91,68.66 -3034.66,-280.94 -5140.62,-1506.46 -4.72,-2.72 -8.96,-5.17 -12.72,-7.26 -133.2,-74.58 -93.22,-281.41 -101.82,-450.48 -70.19,-1381.49 428.83,-2661.95 1292.34,-3615.27 862.27,-951.91 2088.17,-1577.65 3473.19,-1651.38zm-2241.97 821.37c422.78,251.3 -581.48,314.45 1041.39,535.92 239.52,32.68 430.91,-133.79 553.24,17.66 164.39,203.48 145.86,256.82 294.62,309.96 539.9,192.8 1683.71,-528.81 1770.63,-594.43 86.96,-65.71 0.86,-244.26 58.09,-267.71 57.26,-23.38 209.57,99.34 287.12,5.09 124.76,-151.66 -63.49,-195.82 51.69,-472.37 649.57,214.15 1240.89,560.05 1740.1,1007.48 33.34,29.87 66.21,60.26 98.71,91.03 49.45,115.8 78.8,266.79 -54.2,340.36 -232.54,128.7 -428.86,28.71 -490.05,183.14 -61.22,154.48 17.95,144.42 -187.76,172.8 -205.75,28.41 -270.78,2.8 -266.04,200.32 10.81,457.56 -131.5,945.87 21.22,940.95 275.74,-8.88 376.72,-113.08 344.94,-6.74 -31.78,106.36 51.2,381.1 -123.92,489.27 -175.07,108.18 -354.63,24.68 -330.21,296.74 24.48,271.99 139.86,242.62 280.86,299.05 140.97,56.47 99.76,291.27 215.43,372.35 115.68,81.08 281.38,206 374.36,49.87 399.87,-671.53 672.05,-709.85 722.51,-1044.54 15.9,-105.53 -64.47,-328.06 114.78,-145.7 164.89,167.76 607.35,597.94 374.11,881.48 -110.09,133.82 -288.41,178.18 -107.42,185.99 181.05,7.83 283.45,37.26 329.65,-98.97 85.22,-251.16 -115.25,-378.41 229.46,-424.22 26.22,150.72 45.59,303.9 57.64,459.34 -40.42,46.79 -98,110.19 -139.95,143.13 -71.49,56.14 -163.36,26.13 -209.25,63.47 -60,48.85 -243.37,448.64 -606.59,189.31 -60.64,-43.26 -177.44,-147.53 -248.98,117.96 -71.5,265.5 -114.17,366.64 -218.92,709.51 -90.06,294.55 -334.05,412.81 -354.71,555.78 -919.25,354.54 -1885.42,657.59 -2876.25,700.41 -359.95,15.63 -723.13,-3.14 -1089.64,-51.43 -0.3,-0.6 -184.37,-377.72 -394.05,-639.67 -209.87,-262.16 -137.15,18.95 -547.45,-5.73 -410.26,-24.69 -277.83,-31.74 -486.19,-55.52 -208.41,-23.79 -179.27,26.97 -234.58,-121.28 -55.36,-148.25 -83.91,-187.43 -198.41,-349.98 -174.47,-247.65 560.58,-426.15 830.85,-480.39 286.67,-57.53 -31.28,399.06 449.13,266.83 104.78,-28.86 23.25,-169.89 -140.13,-353.11 -163.34,-183.18 -176.28,-229.03 -197.76,-443.06 -21.51,-214.01 225.86,-311.63 309.13,-554.48 39.95,-116.55 192.93,-27.7 338.38,-60.72 157.6,-35.74 252.31,-217.3 313.8,-276.42 248.61,-239.08 -586.78,-1315.33 -921.87,-1102.37 -146.66,93.22 -170.71,90.52 -165.39,194.93 5.33,104.4 -67.41,137.31 -208.38,80.9 -286.61,-114.81 -5.48,722.85 -29.11,786.61 -37.33,100.88 -233.99,-4.97 -280.77,-194.42 -46.81,-189.39 -108.02,-139.64 -262.25,-143.04 -154.22,-3.43 -37.09,-207.37 -35.93,-288.85 1.18,-81.47 -149.78,-154.52 -75.36,-228.62 583.78,-581.3 78.71,-601.66 -153.89,-780.56 -96.87,-74.49 -166.24,-333.45 -168.76,-446.76 -5.08,-229.67 -28.65,-433.05 138.63,-736.59 213.3,-160.6 224.89,-154.89 463.7,-279.96zm-1515.74 1359.11c-618.64,866.89 -959.88,1938.49 -901.86,3080.53 3.32,65.87 7.68,128.74 13.02,188.46 4.49,50.34 10,102.23 16.48,155.49 628.2,320.37 1248.03,607.85 1859.41,842.63 120.17,-30.36 251.75,-67.94 268.79,-117.93 32.35,-94.74 -197.51,-332.6 -291.11,-397.4 -93.6,-64.83 -125.71,-173.58 -125.71,-173.58 0,0 -651.61,-384.01 -630.15,-484.02 21.5,-100.01 84.75,-318.51 17.34,-390.55 -67.38,-72.03 -167.89,-24.93 -180.82,138.58 -12.93,163.51 -120.97,214.5 -209.4,193.67 -88.44,-20.83 -50.01,-215.79 5.27,-276.87 353.99,-390.95 -131.19,-1604.16 -19.55,-1701.27 115.28,-100.3 713.13,-218.96 697.76,-317.93 -22.79,-146.77 -47.69,-102.1 -222.53,-92.81 -243.92,12.94 -306.24,-409.13 -296.94,-647z"/>
   <path class="fil9 str14" d="M10897.01 5104.69c-61.57,27.12 -122.59,55.05 -183.55,83.5l84.79 180.48c59.57,-27.83 119.23,-55.11 179.42,-81.62l-80.66 -182.36zm5155.08 2177.52c-18.86,-40.85 -39.58,-80.24 -60.38,-120.14l-176.09 93.63c19.47,36.39 37.39,72.58 55.21,109.61l181.26 -83.1zm-157.08 -296.92c-32.67,-58.05 -64.8,-116.55 -97.7,-174.48l-173.51 98.29c31.87,57.95 64.74,115.84 97.18,173.51l174.03 -97.32zm-195.08 -347.99l-96.86 -173.87 -174.28 96.87c32.25,58.15 64.41,116.46 97.15,174.35l173.99 -97.35zm-194.49 -349.31c-33.68,-58.9 -68.32,-117.08 -104.36,-174.55l-168.79 106.1c34.57,55.18 67.9,111.16 100.21,167.7l172.94 -99.25zm-216.43 -345.06c-38.68,-56.08 -78.84,-111.1 -120.3,-165.15l-157.88 121.79c39.48,51.37 77.62,103.87 114.42,157.21l163.76 -113.85zm-249.54 -324.13c-44.62,-51.88 -91.05,-102.64 -138.81,-151.65l-142.51 139.48c44.91,46.17 88.43,93.7 130.41,142.55l150.91 -130.38zm-287.33 -294.56c-51.3,-46.04 -103.64,-89.98 -157.95,-132.44l-122.37 157.43c50.76,39.85 99.55,80.72 147.56,123.79l132.76 -148.78zm-326.1 -253.74c-57.37,-37.91 -116.49,-74.75 -176.71,-107.94l-96.15 174.68c53.76,34.22 109.2,64.12 163.47,99.99l109.39 -166.73zm-361.03 -201.54c-63.22,-28.48 -126.89,-55.5 -192.18,-78.97l-67.41 187.65c60.24,22.15 118.1,46.3 176.61,72.65l82.98 -181.33zm-389.36 -142.26c-66.7,-18.4 -133.63,-34.48 -201.5,-47.88l-37.52 195.86c62.48,12.07 125.05,27.41 186.4,44.33l52.62 -192.31zm-405.17 -80.52c-68.29,-8.46 -136.67,-14.3 -205.35,-18.24l-10.39 199.15c64.28,3.77 127.92,9.16 191.85,17.08l23.89 -197.99zm-411.21 -22.89c-68.35,0.64 -136.64,3.16 -204.83,7.84l13.88 198.89c64.68,-4.19 128.83,-6.71 193.66,-7.33l-2.71 -199.4zm-408.76 27.09c-67.61,8.23 -134.63,18.21 -201.76,29.6l33.77 196.5c64.22,-10.78 128.15,-20.37 192.79,-28.25l-24.8 -197.85zm-402.33 68.74c-65.48,14.36 -133.44,29.51 -197.92,47.49l51.53 192.63c63.12,-16.37 126.15,-31.52 189.85,-45.5l-43.46 -194.62zm-393.06 102.54c-64.74,19.53 -128.83,40.36 -192.92,61.93l64.12 188.81c62,-20.92 124.12,-41.1 186.79,-59.99l-57.99 -190.75zm-384.06 130.34c-63.02,23.77 -125.53,48.24 -187.91,73.68l75.49 184.56c60.89,-24.8 121.82,-48.66 183.32,-71.87l-70.9 -186.37z"/>
   <path class="fil10" d="M10230.63 5241.66c167.26,9.14 106.14,1.33 202.88,-113.34 153.16,-181.54 146.39,-417.76 -41.42,-347.86 -105.64,39.31 -215.63,154.18 -214.77,223.86 0.86,69.69 53.31,237.34 53.31,237.34z"/>
   <path class="fil10" d="M10758.85 4882.86c19.95,90.41 269.33,-146.68 234.11,-207.11 -35.2,-60.44 -73.65,-167.32 -177,-157.1 -371.78,36.86 -77.05,273.81 -57.11,364.21z"/>
   <path class="fil5" d="M5067.32 2802.25c-641,73.45 -893.94,751.73 -582.76,1215.5l273.85 416.21c60.44,93.85 119.4,183.34 181.71,277.15 45.71,68.81 93.81,169.35 153.91,190.96 110.71,39.8 159.3,-68.34 201.5,-131.96 152.84,-230.37 300.83,-465.73 453.91,-694.95 8.89,-13.31 13.31,-22.89 20.5,-34.22 7.29,-11.49 16.07,-23.22 23.83,-35.08 14.73,-22.52 28.16,-45.45 41.49,-72.22 26.3,-52.76 47.38,-105.93 62.24,-168.89 45.91,-194.58 17.56,-398.06 -79.31,-567.3 -85.51,-149.42 -204.1,-256.62 -360.49,-329.75 -104.24,-48.75 -257.98,-80.62 -390.38,-65.45z"/>
   <path class="fil11" d="M5089.08 3127.02c-141.52,22.21 -212.71,68.43 -283.09,147.77 -66.42,74.87 -115.17,191.58 -101.67,326.42 22.7,226.58 225.88,412.67 480.1,384.83 217.92,-23.86 410.86,-222 381.25,-476.22 -15.69,-134.74 -78.99,-221.89 -150.41,-283.91 -69.95,-60.74 -197.88,-119.01 -326.18,-98.89z"/>
   <path class="fil5 str15" d="M10464.86 2185.33c-1104.63,126.58 -1540.52,1295.46 -1004.27,2094.67l471.94 717.25c104.14,161.73 205.75,315.96 313.13,477.62 78.77,118.58 161.68,291.85 265.24,329.08 190.78,68.59 274.52,-117.77 347.25,-227.4 263.38,-396.99 518.42,-802.6 782.23,-1197.62 15.31,-22.94 22.93,-39.44 35.32,-58.97 12.57,-19.79 27.69,-40.01 41.06,-60.45 25.39,-38.8 48.53,-78.33 71.51,-124.46 45.32,-90.92 81.65,-182.54 107.25,-291.04 79.11,-335.32 30.26,-685.99 -136.67,-977.64 -147.37,-257.48 -351.73,-442.23 -621.24,-568.26 -179.63,-84 -444.58,-138.93 -672.75,-112.78z"/>
   <path class="fil12" d="M10502.36 2745.01c-243.88,38.26 -366.55,117.92 -487.84,254.64 -114.47,129.03 -198.48,330.16 -175.2,562.53 39.11,390.45 389.26,711.15 827.34,663.18 375.55,-41.13 708.05,-382.57 657.03,-820.68 -27.05,-232.19 -136.14,-382.38 -259.21,-489.26 -120.54,-104.67 -341.01,-205.1 -562.12,-170.41z"/>
   <path class="fil5 str16" d="M15850.96 5316.31c-641,73.44 -893.94,751.72 -582.76,1215.49l273.86 416.21c60.43,93.85 119.39,183.34 181.7,277.15 45.71,68.81 93.82,169.35 153.91,190.96 110.71,39.8 159.3,-68.34 201.51,-131.96 152.83,-230.36 300.82,-465.73 453.9,-694.95 8.89,-13.31 13.31,-22.89 20.5,-34.22 7.3,-11.48 16.07,-23.22 23.83,-35.08 14.73,-22.51 28.16,-45.45 41.5,-72.22 26.29,-52.76 47.38,-105.93 62.23,-168.89 45.91,-194.58 17.56,-398.06 -79.31,-567.3 -85.51,-149.41 -204.1,-256.62 -360.49,-329.75 -104.24,-48.74 -257.98,-80.62 -390.38,-65.44z"/>
   <path class="fil12 str16" d="M15872.72 5641.08c-141.52,22.2 -212.7,68.43 -283.09,147.76 -66.42,74.87 -115.17,191.59 -101.66,326.42 22.7,226.58 225.88,412.67 480.09,384.83 217.92,-23.86 410.86,-221.99 381.26,-476.22 -15.7,-134.74 -79,-221.89 -150.41,-283.91 -69.95,-60.74 -197.89,-119.01 -326.19,-98.88z"/>
   <path class="fil5" d="M17941.22 3339.87c-537.86,61.63 -750.09,630.77 -488.99,1019.91l229.79 349.23c50.71,78.75 100.18,153.85 152.47,232.56 38.35,57.74 78.72,142.1 129.14,160.23 92.9,33.4 133.67,-57.34 169.08,-110.72 128.24,-193.3 252.42,-390.79 380.87,-583.13 7.46,-11.17 11.17,-19.2 17.2,-28.71 6.12,-9.64 13.49,-19.49 19.99,-29.44 12.37,-18.89 23.63,-38.14 34.82,-60.6 22.07,-44.27 39.76,-88.88 52.22,-141.71 38.52,-163.27 14.74,-334.01 -66.54,-476.02 -71.76,-125.37 -171.26,-215.32 -302.49,-276.69 -87.46,-40.9 -216.47,-67.64 -327.56,-54.91z"/>
   <path class="fil11" d="M17959.48 3612.38c-118.75,18.63 -178.48,57.42 -237.54,123.99 -55.74,62.82 -96.64,160.76 -85.31,273.9 19.05,190.11 189.54,346.26 402.84,322.9 182.86,-20.02 344.76,-186.27 319.91,-399.59 -13.16,-113.06 -66.28,-186.19 -126.2,-238.22 -58.7,-50.97 -166.05,-99.87 -273.7,-82.98z"/>
   <path class="fil9 str17" d="M5332.44 5227.83c-27.03,-50.36 -45.04,-98.25 -53.53,-154.94l-197.41 28.15c12.17,80.3 36.55,148.91 74.84,220.36l176.1 -93.57zm1662.5 767.99c-62.28,-1.49 -125.47,-7.85 -187.17,-16.31l-28.19 197.41c63.77,11.1 144.72,16.69 209.81,18.24l5.55 -199.34zm-376.5 -50.01c-62.8,-13.37 -125.5,-29.22 -187.3,-46.66l-54.5 191.79c65.38,18.88 132.99,35.58 199.57,49.75l42.23 -194.88zm-371.92 -104.78c-60.57,-20.95 -121.3,-44.04 -180.32,-69.03l-77.36 183.78c63.06,26.57 127.44,51.18 192.07,73.55l65.61 -188.3zm-355.06 -149.39c-56.66,-28.9 -112.36,-59.28 -166.41,-92.83l-105.45 169.25c58.99,36.68 119.85,69.87 181.71,101.42l90.15 -177.84zm-321.13 -200.18c-48.07,-37.39 -93.95,-79.07 -135.31,-123.79l-146.65 135.15c48.49,52.34 102.15,101.42 158.49,145.23l123.47 -156.59z"/>
   <path class="fil9 str18" d="M7323.2 6900.25c-64.96,-14.37 -134.31,-31.06 -199.76,-41.39l-33.38 196.56c63.48,11.2 127.63,25.7 190.65,39.65l42.49 -194.82zm2965.75 -927.94c-10.79,58.15 -29.51,117.3 -51.76,172.06l184.23 76.26c27.09,-65.25 50.15,-139.7 63.06,-209.18l-195.53 -39.14zm-135.61 331.92c-32.96,51.46 -71.19,99.83 -112.16,145.13l147.55 134.12c48.04,-53.37 92.7,-109.55 131.47,-170.06l-166.86 -109.19zm-246.32 272.76c-48.52,40.13 -98.51,76.29 -151.26,110.65l108.03 167.57c59.41,-38.55 115.85,-79.53 170.44,-124.66l-127.21 -153.56zm-315.41 205.06c-56.99,28.89 -113.88,54.63 -172.96,78.91l74.03 185.16c64.96,-28.57 126.05,-54.27 189.72,-86.56l-90.79 -177.51zm-353.71 144c-61.41,19.53 -122.82,36.16 -185.33,51.72l46.95 193.79c66.96,-16.44 132.99,-34.58 198.69,-55.47l-60.31 -190.04zm-374.05 90.95c-63.5,11.17 -127.4,20.18 -191.46,27.48l22.22 198.17c67.93,-7.65 135.86,-17.3 203.21,-29.15l-33.97 -196.5zm-381.76 42.42c-62.31,1.43 -128.47,1.23 -190.56,-3.55l-12.2 199.02c63.86,6.62 143.32,5.36 208.06,3.88l-5.3 -199.35zm-383.73 -20.63c-64.16,-6.81 -130.02,-16.21 -193.79,-26.34l-30.61 197.01c66.38,10.5 134.54,20.31 201.34,27.38l23.06 -198.05zm-387.45 -59.34c-64.74,-11.85 -129.21,-24.86 -193.72,-37.94l-40.36 195.27c65.38,13.95 131.86,26.71 197.66,38.72l36.42 -196.05z"/>
   <g>
    <path class="fil13" d="M27089.32 4785.02c89.19,26.36 175.63,63.26 259.26,110.73 83.63,47.46 157.51,109.42 221.63,185.88 64.13,76.45 117.1,167.42 158.91,272.89 41.82,105.47 65.53,232 71.08,379.66 5.58,247.84 -64.11,490.4 -209.08,727.7 -144.95,237.28 -334.52,448.21 -568.71,632.77 -234.19,184.56 -496.24,333.54 -786.16,446.9 -289.94,113.36 -571.52,170.06 -844.72,170.06 -217.44,0 -429.34,-15.83 -635.64,-47.46 -206.31,-31.63 -387.51,-79.1 -543.61,-142.37 -156.13,-63.28 -281.58,-145.02 -376.38,-245.21 -94.77,-100.18 -142.17,-221.46 -142.17,-363.84 0,-63.28 18.12,-133.15 54.35,-209.61 36.25,-76.45 75.28,-143.69 117.1,-201.69 41.81,-58 80.84,-101.51 117.09,-130.52 36.25,-28.99 54.35,-25.05 54.35,11.88 -5.56,94.9 22.31,191.13 83.63,288.68 61.34,97.57 153.35,185.88 276.03,265 122.66,79.09 274.58,143.67 455.8,193.77 181.2,50.11 391.68,75.14 631.44,75.14 267.63,0 501.8,-63.28 702.54,-189.82 200.73,-126.56 369.39,-276.85 505.99,-450.85 136.6,-174.03 238.38,-349.35 305.29,-526.01 66.88,-176.65 100.35,-312.42 100.35,-407.35 0,-126.56 -25.09,-224.11 -75.28,-292.67 -50.17,-68.53 -115.69,-118.64 -196.56,-150.27 -80.83,-31.65 -168.64,-50.1 -263.43,-55.36 -94.78,-5.28 -184,-5.28 -267.63,0 -27.9,5.26 -54.37,7.9 -79.45,7.9 -25.09,0 -51.59,0 -79.46,0l-58.54 0c-22.31,0 -36.25,-2.64 -41.81,-7.9 -117.12,-21.09 -213.29,-71.2 -288.57,-150.29 -75.26,-79.09 -132.41,-166.11 -171.44,-261.01 -153.33,253.09 -285.76,496.97 -398.65,731.64 -112.91,234.64 -170.09,441.61 -170.09,620.92 0,94.9 2.81,168.72 8.38,221.46 5.58,52.73 9.77,96.23 12.53,130.5 2.81,34.29 6.99,61.96 12.56,83.05 5.59,21.1 8.35,47.47 8.35,79.1 0,31.65 -36.23,40.89 -107.32,27.69 -71.07,-13.18 -150.54,-44.83 -235.57,-94.91 -85.04,-50.1 -164.48,-117.32 -235.57,-201.69 -71.1,-84.38 -107.33,-181.95 -107.33,-292.67 0,-116 37.63,-259.69 112.91,-431.08 75.26,-171.38 170.05,-353.3 284.36,-545.76 114.31,-192.48 238.35,-391.53 372.19,-597.19 133.8,-205.65 257.86,-400.77 372.15,-585.33 114.31,-184.56 209.1,-351.98 284.36,-502.25 75.28,-150.3 112.91,-270.26 112.91,-359.91 0,-158.19 -9.73,-282.11 -29.28,-371.76 -19.51,-89.63 -6.95,-134.45 37.65,-134.45 33.44,0 79.46,19.77 136.6,59.32 55.77,39.54 111.51,87.01 165.88,142.37 52.97,55.38 101.75,114.7 143.57,177.98 43.22,63.26 64.12,121.28 64.12,174.01 0,79.09 -19.5,170.06 -58.53,272.89 -39.04,102.83 -90.62,214.87 -154.73,336.15 -64.12,121.28 -138,250.48 -221.65,387.57 -83.63,137.12 -167.26,276.85 -250.89,419.23 50.16,31.63 112.91,61.96 188.17,90.97 75.3,28.99 160.31,43.48 255.09,43.48 184.01,0 348.48,-47.44 494.86,-142.37 146.35,-94.91 271.8,-209.59 373.55,-344.07 101.78,-134.45 182.62,-275.51 241.16,-423.16 57.15,-147.65 86.41,-271.57 86.41,-371.76 0,-100.19 -16.72,-224.11 -50.18,-371.76 -33.45,-147.65 -87.8,-288.71 -163.08,-423.16 -76.66,-134.48 -177.03,-250.48 -302.48,-348.03 -125.44,-97.57 -281.57,-146.33 -465.57,-146.33 -246.73,0 -466.96,56.68 -663.5,170.06 -195.16,113.37 -365.2,249.14 -507.41,407.35 -142.17,158.19 -252.29,317.7 -327.55,478.53 -75.28,160.82 -112.91,288.7 -112.91,383.63 0,94.91 9.75,171.36 29.26,229.37 19.54,58.02 37.65,104.14 54.37,138.43 16.72,34.27 25.09,56.68 25.09,67.22 0,10.56 -16.72,15.83 -50.19,15.83 -33.44,0 -85.01,-11.87 -153.32,-35.6 -68.31,-23.74 -139.38,-58.01 -210.48,-102.83 -71.09,-44.81 -132.43,-102.83 -185.4,-174 -51.57,-71.2 -78.04,-154.25 -78.04,-249.16 0,-94.91 50.18,-229.39 150.53,-403.39 100.36,-174.03 242.54,-346.71 426.53,-518.09 184,-171.39 407.04,-321.66 669.1,-450.86 262.05,-129.2 557.56,-193.79 886.53,-193.79 189.57,0 374.96,38.24 556.16,114.7 181.22,76.45 342.91,185.88 485.1,328.25 142.17,142.38 257.88,317.7 347.08,525.99 89.2,208.29 133.82,444.26 133.82,707.93 0,247.82 -73.88,487.76 -221.64,719.77 -147.77,232.02 -333.14,429.76 -556.17,593.24zm4583.21 -316.39c-206.31,300.56 -415.38,572.13 -627.26,814.69 -89.22,105.47 -184.01,206.97 -284.36,304.52 -100.37,97.57 -202.13,187.2 -305.28,268.94 -103.14,81.73 -204.92,148.97 -305.27,201.69 -100.35,52.74 -195.16,81.73 -284.35,87.01 -83.63,147.65 -170.07,286.07 -259.29,415.27 -89.19,129.2 -179.81,242.56 -271.79,340.11 -92.01,97.54 -181.22,175.34 -267.64,233.34 -86.43,58 -171.45,87.01 -255.08,87.01 -262.06,0 -483.69,-52.74 -664.91,-158.21 -181.2,-105.46 -271.8,-253.09 -271.8,-442.93 0,-63.28 25.09,-170.07 75.28,-320.34 50.16,-150.29 114.27,-317.71 192.35,-502.27 78.04,-184.56 167.26,-377.04 267.61,-577.42 100.38,-200.37 203.53,-382.29 309.45,-545.76 105.94,-163.47 206.29,-297.94 301.1,-403.39 94.79,-105.46 178.42,-158.21 250.91,-158.21 39.03,0 91.98,13.2 158.89,39.55 89.22,-147.63 179.82,-268.91 271.84,-363.84 91.98,-94.91 174.23,-142.38 246.71,-142.38 39.01,0 97.59,22.42 175.63,67.24 78.06,44.83 154.72,101.51 230,170.07 75.26,68.53 142.17,143.67 200.71,225.42 58.58,81.74 87.83,156.87 87.83,225.43 0,31.63 -15.34,96.23 -46.02,193.78 -30.64,97.55 -72.45,214.89 -125.44,351.98 -52.95,137.1 -115.7,287.39 -188.17,450.86 -72.5,163.46 -153.32,329.57 -242.54,498.32 178.41,-52.75 363.8,-152.94 556.15,-300.59 192.38,-147.65 369.41,-300.56 531.11,-458.75 183.98,-184.56 365.2,-384.95 543.63,-601.14zm-1488.72 -371.76c-33.45,0 -79.45,40.86 -137.99,122.6 -58.53,81.73 -118.49,183.24 -179.81,304.52 -61.34,121.28 -119.88,255.76 -175.66,403.41 -55.73,147.63 -93.36,286.07 -112.91,415.24 -19.5,129.2 -18.1,242.56 4.19,340.13 22.31,97.55 78.08,156.87 167.3,177.96 117.08,-205.65 223,-412.62 317.8,-620.91 94.77,-208.3 165.86,-398.11 213.26,-569.5 47.41,-171.38 66.91,-309.8 58.54,-415.26 -8.35,-105.45 -59.94,-158.19 -154.72,-158.19zm-1446.9 2934.5c50.21,0 108.75,-23.73 175.66,-71.19 66.91,-47.45 138,-113.37 213.26,-197.74 75.28,-84.37 153.32,-183.24 234.17,-296.62 80.87,-113.37 160.31,-233.33 238.35,-359.88 -61.32,-21.1 -125.44,-52.73 -192.35,-94.91 -66.91,-42.19 -126.85,-96.25 -179.8,-162.15 -52.97,-65.92 -97.59,-142.37 -133.82,-229.39 -36.22,-87.01 -54.37,-191.15 -54.37,-312.44l0 -31.62c-100.35,184.56 -192.35,379.65 -276,585.3 -83.63,205.66 -144.95,395.5 -183.99,569.5 -39.03,174.02 -47.38,317.72 -25.09,431.08 22.31,113.38 83.63,170.06 183.98,170.06zm5202.12 -2562.74c-206.31,300.56 -415.39,572.13 -627.27,814.69 -89.2,105.47 -184,206.97 -284.36,304.52 -100.37,97.57 -202.12,187.2 -305.26,268.94 -103.16,81.73 -204.93,148.97 -305.28,201.69 -100.36,52.74 -195.14,81.73 -284.36,87.01 -83.63,147.65 -170.04,286.07 -259.26,415.27 -89.22,129.2 -179.82,242.56 -271.8,340.11 -92.02,97.54 -181.22,175.34 -267.65,233.34 -86.42,58 -171.45,87.01 -255.08,87.01 -262.07,0 -483.7,-52.74 -664.92,-158.21 -181.2,-105.46 -271.8,-253.09 -271.8,-442.93 0,-63.28 25.09,-170.07 75.28,-320.34 50.17,-150.29 114.29,-317.71 192.35,-502.27 78.07,-184.56 167.27,-377.04 267.64,-577.42 100.37,-200.37 203.51,-382.29 309.45,-545.76 105.94,-163.47 206.29,-297.94 301.08,-403.39 94.8,-105.46 178.43,-158.21 250.91,-158.21 39.03,0 92,13.2 158.91,39.55 89.19,-147.63 179.81,-268.91 271.82,-363.84 91.98,-94.91 174.23,-142.38 246.7,-142.38 39.03,0 97.59,22.42 175.63,67.24 78.09,44.83 154.75,101.51 230.03,170.07 75.26,68.53 142.17,143.67 200.7,225.42 58.56,81.74 87.82,156.87 87.82,225.43 0,31.63 -15.32,96.23 -46,193.78 -30.66,97.55 -72.48,214.89 -125.45,351.98 -52.97,137.1 -115.71,287.39 -188.17,450.86 -72.49,163.46 -153.34,329.57 -242.56,498.32 178.44,-52.75 363.82,-152.94 556.18,-300.59 192.35,-147.65 369.39,-300.56 531.08,-458.75 184,-184.56 365.22,-384.95 543.64,-601.14zm-1488.73 -371.76c-33.44,0 -79.44,40.86 -137.98,122.6 -58.54,81.73 -118.5,183.24 -179.82,304.52 -61.32,121.28 -119.86,255.76 -175.63,403.41 -55.75,147.63 -93.38,286.07 -112.91,415.24 -19.53,129.2 -18.12,242.56 4.19,340.13 22.28,97.55 78.06,156.87 167.28,177.96 117.07,-205.65 223.01,-412.62 317.8,-620.91 94.78,-208.3 165.88,-398.11 213.28,-569.5 47.38,-171.38 66.91,-309.8 58.54,-415.26 -8.35,-105.45 -59.94,-158.19 -154.75,-158.19zm-1446.87 2934.5c50.19,0 108.72,-23.73 175.63,-71.19 66.91,-47.45 138,-113.37 213.26,-197.74 75.28,-84.37 153.35,-183.24 234.19,-296.62 80.85,-113.37 160.29,-233.33 238.36,-359.88 -61.34,-21.1 -125.45,-52.73 -192.36,-94.91 -66.9,-42.19 -126.84,-96.25 -179.81,-162.15 -52.97,-65.92 -97.57,-142.37 -133.82,-229.39 -36.23,-87.01 -54.37,-191.15 -54.37,-312.44l0 -31.62c-100.36,184.56 -192.36,379.65 -275.99,585.3 -83.63,205.66 -144.97,395.5 -183.98,569.5 -39.05,174.02 -47.4,317.72 -25.09,431.08 22.29,113.38 83.63,170.06 183.98,170.06zm4156.65 -126.55c66.91,0 147.76,-40.87 242.56,-122.6 94.77,-81.74 199.33,-189.84 313.62,-324.3 114.31,-134.48 232.81,-287.39 355.45,-458.77 122.66,-171.36 242.56,-346.71 359.63,-525.99 273.22,-421.84 563.15,-901.71 869.81,-1439.57 -284.37,595.86 -563.14,1125.81 -836.34,1589.86 -117.1,200.38 -239.76,395.47 -368.01,585.31 -128.23,189.84 -255.08,359.88 -380.54,510.18 -125.45,150.29 -246.71,270.25 -363.8,359.9 -117.1,89.63 -225.82,134.46 -326.19,134.46 -83.64,0 -157.51,-34.27 -221.64,-102.83 -64.12,-68.56 -121.26,-156.87 -171.44,-264.98 -50.17,-108.1 -91.99,-225.42 -125.45,-351.98 -33.44,-126.56 -62.72,-245.2 -87.82,-355.95 -25.09,-110.72 -46.02,-206.95 -62.74,-288.68 -16.72,-81.73 -30.66,-133.16 -41.81,-154.25 -61.32,-47.47 -112.91,-93.59 -154.73,-138.42 -41.81,-44.82 -76.64,-80.41 -104.54,-106.78 -150.54,174.02 -295.49,344.07 -434.89,510.17 -139.41,166.11 -264.85,315.08 -376.38,446.9 -117.07,216.21 -211.86,392.85 -284.33,529.97 -72.5,137.09 -108.73,218.82 -108.73,245.2 0,36.9 -23.69,44.8 -71.09,23.71 -47.4,-21.1 -97.59,-55.36 -150.54,-102.83 -52.99,-47.44 -103.16,-100.19 -150.56,-158.19 -47.38,-58 -71.09,-105.46 -71.09,-142.37 0,-15.82 39.03,-100.19 117.11,-253.12 78.04,-152.91 182.58,-349.35 313.62,-589.27 131.03,-239.92 278.76,-510.17 443.26,-810.73 164.48,-300.59 334.54,-607.75 510.18,-921.48 175.63,-313.76 345.69,-622.24 510.17,-925.44 164.48,-303.21 312.23,-574.78 443.27,-814.7 131.03,-239.94 235.57,-439 313.63,-597.19 78.06,-158.18 117.07,-250.47 117.07,-276.85 0,-47.44 29.28,-69.85 87.82,-67.21 58.54,2.62 121.3,21.09 188.19,55.36 66.91,34.27 129.65,76.45 188.19,126.56 58.54,50.08 87.81,96.23 87.81,138.41 0,21.1 -32.06,97.55 -96.18,229.39 -64.13,131.81 -150.54,301.88 -259.27,510.17 -108.74,208.29 -235.57,444.26 -380.54,707.91 -144.97,263.66 -296.91,537.87 -455.8,822.61 -158.93,284.75 -319.22,570.82 -480.92,858.21 -161.69,287.38 -315.03,557.63 -459.98,810.75 150.53,-216.21 313.63,-440.31 489.26,-672.32 175.61,-232.02 344.3,-444.27 505.99,-636.73 161.69,-192.48 313.64,-350.67 455.8,-474.59 142.19,-123.92 255.08,-185.88 338.75,-185.88 139.36,0 256.48,21.1 351.24,63.28 94.79,42.19 171.45,93.59 230.01,154.23 58.54,60.64 101.75,122.6 129.63,185.88 27.88,63.28 41.82,113.38 41.82,150.29 0,68.54 -37.63,187.2 -112.91,355.93 -75.26,168.74 -171.45,342.77 -288.55,522.05 -117.07,179.28 -249.5,337.47 -397.24,474.58 -147.75,137.1 -294.13,208.3 -439.1,213.55 22.31,79.12 43.22,172.71 62.72,280.81 19.51,108.09 39.03,212.23 58.54,312.42 19.53,100.21 40.45,184.56 62.72,253.12 22.31,68.56 47.41,102.83 75.28,102.83zm-1095.61 -1463.31c55.76,42.19 143.57,96.25 263.43,162.17 119.9,65.9 255.12,98.87 405.66,98.87 39.03,0 94.76,-39.55 167.26,-118.65 72.5,-79.11 150.54,-179.3 234.17,-300.58 83.63,-121.28 163.12,-250.48 238.37,-387.57 75.28,-137.1 135.2,-266.3 179.82,-387.58 44.6,-121.28 66.91,-221.46 66.91,-300.56 0,-79.09 -36.27,-118.66 -108.72,-118.66 -50.19,0 -126.85,38.25 -230.03,114.7 -103.13,76.46 -220.21,177.97 -351.24,304.52 -131.03,126.56 -270.44,271.58 -418.17,435.04 -147.76,163.47 -296.92,329.58 -447.46,498.3zm3420.66 261.04c66.91,36.9 121.29,75.13 163.1,114.68 41.82,39.55 62.72,80.41 62.72,122.6 0,63.28 -25.09,164.79 -75.28,304.52 -50.16,139.73 -114.29,282.13 -192.35,427.12 -78.06,145.01 -168.66,271.57 -271.8,379.68 -103.16,108.1 -207.71,162.15 -313.65,162.15 -105.94,0 -200.71,-17.14 -284.36,-51.41 -83.63,-34.29 -154.7,-75.15 -213.26,-122.62 -58.54,-47.44 -103.16,-98.87 -133.84,-154.23 -30.64,-55.36 -45.98,-104.14 -45.98,-146.33 0,-89.63 85.03,-217.51 255.1,-383.62 170.04,-166.1 383.3,-349.34 639.78,-549.72 -61.32,-31.65 -137.98,-69.87 -229.98,-114.7 -92,-44.83 -182.6,-92.27 -271.82,-142.37 -89.22,-50.09 -164.48,-102.83 -225.8,-158.19 -61.34,-55.36 -92.02,-112.07 -92.02,-170.07 0,-73.81 39.03,-177.96 117.12,-312.42 78.04,-134.47 168.64,-266.29 271.79,-395.49 103.14,-129.2 204.91,-241.24 305.27,-336.17 100.35,-94.91 175.63,-142.37 225.84,-142.37 50.16,0 110.1,19.77 179.79,59.32 69.7,39.55 133.82,83.05 192.36,130.52 58.56,47.46 105.96,90.95 142.19,130.51 36.22,39.55 43.21,59.33 20.9,59.33 -50.18,0 -119.88,31.62 -209.07,94.9 -89.22,63.28 -178.44,139.74 -267.64,229.39 -89.21,89.63 -167.28,183.24 -234.19,280.79 -66.9,97.55 -100.37,180.6 -100.37,249.16 0,68.56 44.62,130.52 133.82,185.88 89.22,55.36 186.8,109.42 292.74,162.14 256.48,-189.83 522.72,-378.35 798.72,-565.53 275.98,-187.2 531.06,-357.27 765.23,-510.2 267.66,-174 532.51,-342.74 794.55,-506.21 -245.32,174.02 -496.23,353.3 -752.71,537.86 -217.45,158.19 -454.42,337.47 -710.9,537.87 -256.48,200.37 -501.83,398.11 -736,593.23zm-777.8 1162.72c55.77,0 110.12,-34.27 163.09,-102.83 52.97,-68.56 98.97,-150.29 137.98,-245.2 39.06,-94.91 72.5,-192.48 100.38,-292.66 27.87,-100.19 47.38,-181.92 58.53,-245.2 -133.81,121.28 -252.27,235.98 -355.45,344.06 -103.13,108.11 -178.39,201.72 -225.79,280.81 -47.41,79.1 -64.13,142.38 -50.19,189.82 13.92,47.47 71.09,71.2 171.45,71.2zm-9082.75 6724.02c105.94,-42.17 170.07,-36.91 192.36,15.83 22.31,52.72 4.21,116 -54.37,189.82 -58.54,73.84 -157.51,139.76 -296.9,197.76 -139.4,58 -320.6,71.17 -543.61,39.54 -117.12,-15.81 -225.84,-106.78 -326.19,-272.89 -100.36,-166.1 -189.58,-361.2 -267.64,-585.31 -78.06,-224.1 -140.78,-457.45 -188.17,-700.01 -47.4,-242.56 -76.66,-450.85 -87.81,-624.88 -150.56,10.56 -284.38,-2.62 -401.45,-39.54 -117.1,-36.91 -211.88,-92.27 -284.36,-166.11 -128.25,247.84 -256.48,494.36 -384.73,739.56 -128.25,245.2 -239.73,470.63 -334.54,676.28 -94.79,205.65 -168.66,382.32 -221.63,529.95 -52.97,147.65 -68.31,245.2 -46,292.66 33.46,89.65 11.15,142.38 -66.91,158.19 -78.07,15.84 -168.66,1.32 -271.82,-43.48 -103.14,-44.83 -193.74,-117.35 -271.8,-217.53 -78.06,-100.19 -97.59,-221.47 -58.56,-363.85 27.88,-94.91 94.79,-237.28 200.73,-427.12 105.94,-189.84 229.98,-406.03 372.19,-648.61 142.17,-242.56 291.3,-500.93 447.43,-775.15 156.13,-274.19 296.89,-543.12 422.38,-806.77 125.44,-263.66 225.8,-508.88 301.08,-735.6 75.26,-226.75 104.53,-416.59 87.81,-569.52 -16.74,-110.72 11.14,-170.04 83.63,-177.96 72.48,-7.92 154.73,17.13 246.71,75.13 92,58.03 177.03,138.44 255.12,241.27 78.04,102.82 114.27,206.95 108.72,312.41 0,31.65 -19.53,89.66 -58.56,174.03 -39.03,84.37 -89.22,187.2 -150.54,308.48 -61.34,121.28 -132.43,259.69 -213.28,415.26 -80.82,155.55 -165.86,317.7 -255.08,486.45 61.33,0 132.44,-3.96 213.27,-11.88 80.84,-7.9 174.25,-25.03 280.19,-51.4 178.41,-36.91 345.67,-127.88 501.8,-272.9 156.13,-145.01 287.16,-316.37 393.1,-514.13 105.92,-197.73 178.42,-406.03 217.45,-624.86 39.01,-218.84 29.26,-421.86 -29.28,-609.06 -58.54,-187.18 -174.25,-342.75 -347.1,-466.67 -172.83,-123.92 -418.17,-191.13 -735.97,-201.69 -211.88,-5.28 -398.65,31.65 -560.36,110.74 -161.72,79.1 -302.48,180.6 -422.34,304.52 -119.9,123.92 -220.25,261.02 -301.12,411.31 -80.85,150.27 -144.95,292.65 -192.35,427.12 -47.41,134.46 -79.45,253.12 -96.17,355.95 -16.74,102.82 -22.31,167.4 -16.74,193.77 5.58,47.47 -16.73,63.28 -66.89,47.47 -50.19,-15.82 -108.72,-56.68 -175.63,-122.6 -66.91,-65.92 -131.04,-151.61 -192.38,-257.08 -61.34,-105.46 -103.15,-226.75 -125.46,-363.84 -22.29,-137.1 27.89,-295.3 150.53,-474.59 122.69,-179.28 288.57,-348.02 497.64,-506.21 209.1,-158.19 446.07,-290.03 710.92,-395.49 264.83,-105.47 528.28,-150.27 790.35,-134.46 100.37,5.28 239.73,21.09 418.17,47.44 178.44,26.38 361.02,79.12 547.82,158.21 186.77,79.1 358.22,192.46 514.34,340.11 156.13,147.66 259.27,345.39 309.47,593.23 55.74,263.65 47.36,519.41 -25.11,767.25 -72.48,247.84 -179.82,478.53 -321.99,692.1 -142.18,213.57 -303.88,403.38 -485.08,569.49 -181.22,166.11 -355.47,296.62 -522.73,391.53 33.47,205.66 93.41,427.13 179.82,664.43 86.43,237.28 183.98,454.79 292.73,652.55 108.72,197.73 221.63,354.62 338.72,470.62 117.08,116.01 225.8,152.91 326.17,110.73zm3788.67 -2776.3c-206.31,300.56 -415.39,572.13 -627.25,814.69 -89.22,105.47 -184.02,206.98 -284.37,304.53 -100.38,97.56 -202.13,187.19 -305.27,268.93 -103.13,81.73 -204.91,148.97 -305.26,201.69 -100.35,52.75 -195.16,81.74 -284.38,87.01 -83.63,147.66 -170.04,286.07 -259.26,415.27 -89.22,129.2 -179.82,242.56 -271.8,340.11 -92,97.55 -181.22,175.34 -267.63,233.34 -86.44,58 -171.47,87.02 -255.1,87.02 -262.04,0 -483.7,-52.75 -664.9,-158.21 -181.2,-105.47 -271.82,-253.1 -271.82,-442.94 0,-63.28 25.1,-170.06 75.28,-320.34 50.17,-150.29 114.29,-317.71 192.38,-502.27 78.04,-184.56 167.26,-377.04 267.61,-577.42 100.37,-200.37 203.51,-382.29 309.45,-545.76 105.94,-163.46 206.29,-297.94 301.08,-403.39 94.8,-105.46 178.43,-158.21 250.93,-158.21 39.01,0 91.98,13.2 158.89,39.55 89.22,-147.63 179.82,-268.91 271.82,-363.84 91.98,-94.91 174.25,-142.37 246.7,-142.37 39.04,0 97.59,22.41 175.66,67.23 78.06,44.83 154.72,101.51 230,170.07 75.26,68.54 142.17,143.67 200.71,225.43 58.55,81.73 87.81,156.87 87.81,225.42 0,31.63 -15.32,96.23 -46,193.78 -30.64,97.55 -72.47,214.89 -125.44,351.99 -52.95,137.09 -115.7,287.38 -188.17,450.85 -72.5,163.47 -153.35,329.57 -242.54,498.32 178.41,-52.75 363.8,-152.93 556.15,-300.59 192.35,-147.65 369.39,-300.56 531.1,-458.75 183.99,-184.56 365.21,-384.95 543.62,-601.14zm-1488.71 -371.76c-33.44,0 -79.44,40.87 -137.98,122.6 -58.54,81.73 -118.49,183.24 -179.84,304.52 -61.32,121.28 -119.85,255.76 -175.63,403.41 -55.73,147.63 -93.38,286.07 -112.91,415.25 -19.5,129.19 -18.12,242.56 4.19,340.12 22.31,97.55 78.08,156.87 167.28,177.97 117.07,-205.66 223.01,-412.63 317.82,-620.92 94.76,-208.29 165.86,-398.11 213.26,-569.5 47.4,-171.38 66.91,-309.8 58.54,-415.26 -8.35,-105.45 -59.94,-158.19 -154.73,-158.19zm-1446.89 2934.51c50.19,0 108.73,-23.74 175.63,-71.2 66.91,-47.44 138.03,-113.36 213.29,-197.74 75.28,-84.37 153.32,-183.24 234.17,-296.62 80.86,-113.36 160.31,-233.32 238.35,-359.88 -61.32,-21.1 -125.45,-52.73 -192.35,-94.91 -66.91,-42.19 -126.85,-96.25 -179.8,-162.15 -52.99,-65.92 -97.59,-142.37 -133.82,-229.38 -36.25,-87.02 -54.39,-191.16 -54.39,-312.44l0 -31.63c-100.35,184.56 -192.35,379.65 -275.98,585.31 -83.64,205.65 -144.96,395.49 -183.99,569.49 -39.05,174.03 -47.4,317.72 -25.09,431.08 22.31,113.39 83.63,170.07 183.98,170.07zm3587.94 -150.29c78.07,0 170.07,-40.87 276.01,-122.6 105.94,-81.74 217.45,-189.84 334.54,-324.3 117.1,-134.46 239.76,-286.07 367.99,-454.81 128.25,-168.75 250.91,-342.75 367.98,-522.03 278.79,-416.59 568.73,-891.17 869.81,-1423.76 -289.94,595.87 -568.71,1125.81 -836.32,1589.86 -117.12,200.38 -238.38,395.48 -363.84,585.31 -125.45,189.84 -248.11,359.89 -367.99,510.18 -119.88,150.29 -236.97,270.25 -351.26,359.9 -114.3,89.63 -218.85,134.46 -313.64,134.46 -105.94,0 -207.69,-11.86 -305.26,-35.59 -97.57,-23.73 -183.98,-54.06 -259.29,-90.97 -75.25,-36.91 -135.19,-80.42 -179.81,-130.5 -44.6,-50.1 -66.91,-104.14 -66.91,-162.17 0,-31.63 27.88,-117.32 83.65,-257.05 55.75,-139.74 125.45,-304.52 209.08,-494.36 -100.36,158.19 -199.33,307.16 -296.9,446.89 -97.59,139.76 -190.97,263.66 -280.17,371.76 -89.21,108.11 -174.25,193.8 -255.09,257.08 -80.85,63.28 -149.16,94.91 -204.91,94.91 -94.79,0 -178.42,-18.46 -250.92,-55.36 -72.47,-36.91 -136.58,-81.74 -192.35,-134.48 -55.75,-52.72 -97.57,-108.09 -125.45,-166.11 -27.89,-58 -41.81,-108.08 -41.81,-150.27 0,-47.46 26.47,-142.37 79.44,-284.75 52.97,-142.37 121.28,-305.84 204.91,-490.4 83.63,-184.56 171.45,-379.67 263.45,-585.33 91.98,-205.65 179.8,-398.11 263.47,-577.41 83.63,-179.28 151.92,-333.51 204.89,-462.71 52.97,-129.2 79.45,-212.25 79.45,-249.16 0,-31.63 26.49,-36.91 79.46,-15.81 52.95,21.09 112.91,54.04 179.8,98.87 66.91,44.82 126.87,92.27 179.82,142.37 52.99,50.1 79.46,88.33 79.46,114.68 0,15.84 -33.46,89.65 -100.37,221.49 -66.91,131.82 -147.76,290.01 -242.54,474.57 -94.77,184.56 -193.76,382.31 -296.89,593.22 -103.16,210.93 -190.98,406.05 -263.47,585.33 -72.46,179.28 -119.86,328.26 -142.17,446.9 -22.29,118.64 0,177.96 66.91,177.96 61.34,0 144.97,-52.72 250.91,-158.19 105.92,-105.46 224.42,-239.92 355.45,-403.39 131.03,-163.46 266.23,-345.38 405.62,-545.78 139.4,-200.37 273.2,-398.11 401.45,-593.23 78.06,-152.91 153.32,-299.24 225.81,-438.97 72.5,-139.74 138.01,-263.66 196.54,-371.76 58.54,-108.11 108.73,-193.8 150.56,-257.06 41.82,-63.28 68.29,-94.93 79.45,-94.93 33.46,0 85.01,14.5 154.72,43.51 69.69,29.01 135.22,59.32 196.54,90.97 61.32,31.63 114.31,61.96 158.91,90.95 44.62,29.01 58.54,43.5 41.82,43.5 -11.16,0 -57.16,63.28 -138,189.84 -80.85,126.56 -174.23,286.07 -280.17,478.53 -105.94,192.47 -214.67,399.45 -326.2,620.91 -111.5,221.47 -204.89,428.44 -280.17,620.92 -75.26,192.46 -122.66,351.99 -142.16,478.53 -19.51,126.56 12.53,189.84 96.16,189.84z"/>
    <path class="fil13" d="M33847.03 13154.27c89.22,0 202.12,-39.55 338.7,-118.66 136.63,-79.1 287.16,-184.56 451.64,-313.74 164.5,-129.2 334.54,-278.17 510.18,-444.28 175.65,-166.08 349.88,-337.47 522.73,-511.49 401.43,-407.35 830.75,-870.06 1287.96,-1388.15 -451.62,595.87 -878.16,1125.81 -1279.61,1589.86 -172.85,200.38 -349.86,395.48 -531.08,585.31 -181.22,189.84 -355.45,359.89 -522.71,510.18 -167.27,150.29 -323.39,270.25 -468.36,359.9 -144.98,89.63 -270.42,134.46 -376.36,134.46 -78.06,0 -158.91,-25.05 -242.54,-75.14 -83.63,-50.1 -160.29,-110.74 -230.01,-181.92 -69.69,-71.2 -126.82,-147.65 -171.44,-229.38 -44.6,-81.74 -66.91,-154.25 -66.91,-217.53 0,-79.1 37.63,-222.79 112.91,-431.08 75.26,-208.28 172.85,-452.18 292.73,-731.65 119.87,-279.47 256.45,-581.37 409.8,-905.66 153.32,-324.3 308.06,-641.99 464.19,-953.11 -289.96,58 -540.85,101.51 -752.71,130.5 -211.9,29.01 -337.35,17.15 -376.38,-35.59 -83.63,-105.47 -146.35,-203.02 -188.17,-292.67 -41.82,-89.63 -68.31,-162.15 -79.47,-217.51 -11.13,-55.36 -6.94,-90.95 12.56,-106.78 19.51,-15.82 54.35,-2.64 104.54,39.54 111.53,89.66 309.45,122.6 593.8,98.89 284.36,-23.73 602.18,-67.24 953.44,-130.52 100.38,-200.37 197.95,-386.25 292.73,-557.63 94.81,-171.39 181.22,-320.34 259.26,-446.9 78.07,-126.56 143.57,-226.75 196.56,-300.56 52.95,-73.84 90.6,-110.75 112.91,-110.75 33.45,0 78.05,13.18 133.82,39.55 55.75,26.37 110.1,59.32 163.07,98.87 52.97,39.55 100.36,80.41 142.17,122.6 41.82,42.19 62.75,81.73 62.75,118.64 0,21.09 -41.84,109.43 -125.47,265 -83.63,155.54 -195.14,357.24 -334.52,605.08 267.61,-47.47 507.37,-76.46 719.27,-87.01 211.86,-10.54 370.75,13.19 476.71,71.19 66.89,42.19 119.88,108.11 158.89,197.74 39.03,89.65 64.12,175.34 75.28,254.44 11.15,79.09 6.97,137.09 -12.56,174 -19.5,36.91 -57.13,21.09 -112.89,-47.44 -50.18,-58.03 -126.87,-98.89 -230,-122.6 -103.16,-23.74 -225.8,-35.61 -367.99,-35.61 -142.19,0 -298.29,10.55 -468.36,31.65 -170.04,21.09 -344.29,47.44 -522.73,79.09 -128.23,237.28 -263.45,490.4 -405.61,756.7 -142.19,266.29 -278.81,528.62 -409.81,784.38 -131.03,255.74 -249.53,502.26 -355.47,736.92 -105.94,235.96 -188.16,442.94 -246.72,622.22 -58.54,179.3 -87.82,322.99 -87.82,428.44 0,105.47 39.05,158.21 117.1,158.21zm1915.25 229.36c117.09,0 250.89,-39.54 401.47,-118.64 150.54,-79.09 309.43,-181.92 476.71,-308.48 167.26,-126.54 337.33,-270.23 510.17,-433.7 172.83,-163.48 340.11,-332.21 501.81,-506.23 384.7,-400.75 780.59,-855.56 1187.61,-1367.06 -362.4,543.13 -724.84,1026.95 -1087.26,1454.07 -156.13,184.56 -319.2,363.84 -489.25,537.87 -170.06,174 -341.51,326.93 -514.38,461.39 -172.85,134.47 -344.29,243.88 -514.34,328.25 -170.06,84.37 -333.14,126.56 -489.26,126.56 -195.16,0 -363.8,-47.47 -506.01,-142.38 -142.17,-94.91 -213.26,-241.24 -213.26,-441.61 0,-63.28 30.68,-171.39 92,-323 61.34,-152.91 143.57,-325.61 246.72,-516.77 103.16,-192.46 221.64,-391.51 355.45,-595.85 133.82,-205.65 270.42,-392.85 409.8,-564.23 139.41,-171.39 278.79,-312.44 418.2,-421.85 139.38,-110.74 267.61,-166.1 384.71,-166.1 33.44,0 86.43,10.53 158.91,31.63 72.47,21.09 143.57,58 213.28,110.74 69.69,52.72 131.03,118.64 183.98,200.38 52.97,81.73 79.47,185.88 79.47,312.44 0,130.49 -48.79,275.51 -146.38,433.71 -97.57,158.19 -221.61,303.21 -372.17,437.66 -150.54,134.48 -316.42,246.52 -497.62,338.81 -181.22,92.27 -352.66,138.42 -514.38,138.42 -33.44,0 -66.91,-7.92 -100.35,-23.74 -78.04,137.1 -143.57,266.3 -196.54,390.22 -52.97,123.92 -90.6,232.02 -112.91,324.29 -22.31,90.97 -23.69,164.79 -4.18,220.17 19.5,55.36 65.5,83.03 138,83.03zm1405.08 -2594.37c-39.04,0 -100.38,40.86 -184.01,122.6 -83.63,81.73 -177.01,188.52 -280.17,320.33 -103.15,131.84 -213.28,280.81 -330.35,446.92 -117.1,166.1 -225.84,333.51 -326.2,502.25 172.85,-26.37 333.16,-79.09 480.92,-158.18 147.76,-79.1 277.39,-170.07 388.89,-272.9 111.53,-102.82 202.11,-210.93 271.82,-324.29 69.7,-113.36 117.1,-217.51 142.19,-312.44 25.07,-94.91 25.07,-172.68 0,-233.32 -25.09,-60.64 -79.46,-90.97 -163.09,-90.97zm1982.13 1257.65c66.91,36.91 121.29,75.13 163.1,114.68 41.82,39.55 62.72,80.41 62.72,122.6 0,63.28 -25.09,164.79 -75.28,304.52 -50.16,139.74 -114.29,282.13 -192.35,427.12 -78.06,145.02 -168.66,271.58 -271.82,379.68 -103.14,108.11 -207.69,162.15 -313.63,162.15 -105.94,0 -200.71,-17.14 -284.36,-51.41 -83.63,-34.28 -154.7,-75.15 -213.28,-122.62 -58.54,-47.44 -103.14,-98.86 -133.82,-154.23 -30.64,-55.36 -45.98,-104.14 -45.98,-146.33 0,-89.63 85.03,-217.51 255.1,-383.61 170.04,-166.11 383.3,-349.35 639.78,-549.72 -61.32,-31.65 -137.98,-69.88 -229.98,-114.71 -92,-44.82 -182.62,-92.27 -271.82,-142.37 -89.22,-50.09 -164.48,-102.83 -225.82,-158.19 -61.32,-55.36 -92,-112.06 -92,-170.07 0,-73.81 39.03,-177.96 117.09,-312.41 78.07,-134.48 168.67,-266.3 271.82,-395.49 103.14,-129.2 204.91,-241.25 305.27,-336.18 100.35,-94.9 175.63,-142.37 225.82,-142.37 50.16,0 110.12,19.77 179.81,59.32 69.7,39.55 133.82,83.05 192.36,130.52 58.56,47.46 105.96,90.95 142.19,130.52 36.22,39.54 43.21,59.32 20.9,59.32 -50.18,0 -119.9,31.63 -209.07,94.91 -89.22,63.28 -178.44,139.73 -267.66,229.38 -89.19,89.63 -167.26,183.24 -234.17,280.79 -66.9,97.55 -100.37,180.6 -100.37,249.16 0,68.56 44.6,130.52 133.82,185.88 89.22,55.36 186.8,109.42 292.75,162.15 256.45,-189.84 522.71,-378.36 798.69,-565.54 276,-187.2 531.08,-357.26 765.25,-510.19 267.63,-174.01 532.48,-342.75 794.55,-506.22 -245.34,174.02 -496.23,353.31 -752.71,537.87 -217.45,158.18 -454.44,337.47 -710.92,537.86 -256.46,200.38 -501.81,398.11 -735.98,593.23zm-777.8 1162.72c55.77,0 110.12,-34.27 163.09,-102.83 52.95,-68.55 98.95,-150.29 137.98,-245.2 39.06,-94.91 72.5,-192.47 100.38,-292.66 27.87,-100.19 47.38,-181.92 58.53,-245.2 -133.81,121.28 -252.29,235.98 -355.45,344.07 -103.15,108.1 -178.41,201.71 -225.79,280.81 -47.41,79.09 -64.13,142.37 -50.19,189.81 13.92,47.47 71.09,71.2 171.45,71.2z"/>
   </g>
  </g>
 </g>
</svg>
